<mxfile host="app.diagrams.net" modified="2023-08-09T07:21:06.610Z" agent="Mozilla/5.0 (Windows NT 10.0; Win64; x64) AppleWebKit/537.36 (KHTML, like Gecko) Chrome/115.0.0.0 Safari/537.36" etag="5ajEMM1kDus73PK5A5Ke" version="21.6.7" type="github">
  <diagram id="C5RBs43oDa-KdzZeNtuy" name="Page-1">
    <mxGraphModel dx="1332" dy="589" grid="1" gridSize="10" guides="1" tooltips="1" connect="1" arrows="1" fold="1" page="1" pageScale="1" pageWidth="827" pageHeight="1169" math="0" shadow="0">
      <root>
        <mxCell id="WIyWlLk6GJQsqaUBKTNV-0" />
        <mxCell id="WIyWlLk6GJQsqaUBKTNV-1" parent="WIyWlLk6GJQsqaUBKTNV-0" />
        <mxCell id="ZPP5SdGMfIlQ1nmrVlfU-12" style="edgeStyle=orthogonalEdgeStyle;rounded=0;orthogonalLoop=1;jettySize=auto;html=1;exitX=0.5;exitY=1;exitDx=0;exitDy=0;exitPerimeter=0;entryX=0.5;entryY=0;entryDx=0;entryDy=0;entryPerimeter=0;" parent="WIyWlLk6GJQsqaUBKTNV-1" source="ZPP5SdGMfIlQ1nmrVlfU-0" target="ZPP5SdGMfIlQ1nmrVlfU-1" edge="1">
          <mxGeometry relative="1" as="geometry" />
        </mxCell>
        <mxCell id="ZPP5SdGMfIlQ1nmrVlfU-0" value="网络组件" style="strokeWidth=2;html=1;shape=mxgraph.flowchart.terminator;whiteSpace=wrap;" parent="WIyWlLk6GJQsqaUBKTNV-1" vertex="1">
          <mxGeometry x="364" y="60" width="100" height="30" as="geometry" />
        </mxCell>
        <mxCell id="ZPP5SdGMfIlQ1nmrVlfU-13" style="edgeStyle=orthogonalEdgeStyle;rounded=0;orthogonalLoop=1;jettySize=auto;html=1;exitX=0.5;exitY=1;exitDx=0;exitDy=0;exitPerimeter=0;entryX=0.5;entryY=0;entryDx=0;entryDy=0;entryPerimeter=0;" parent="WIyWlLk6GJQsqaUBKTNV-1" source="ZPP5SdGMfIlQ1nmrVlfU-1" target="ZPP5SdGMfIlQ1nmrVlfU-3" edge="1">
          <mxGeometry relative="1" as="geometry" />
        </mxCell>
        <mxCell id="ZPP5SdGMfIlQ1nmrVlfU-1" value="网关服务" style="strokeWidth=2;html=1;shape=mxgraph.flowchart.terminator;whiteSpace=wrap;" parent="WIyWlLk6GJQsqaUBKTNV-1" vertex="1">
          <mxGeometry x="364" y="130" width="100" height="30" as="geometry" />
        </mxCell>
        <mxCell id="ZPP5SdGMfIlQ1nmrVlfU-2" value="设备" style="strokeWidth=2;html=1;shape=mxgraph.flowchart.terminator;whiteSpace=wrap;" parent="WIyWlLk6GJQsqaUBKTNV-1" vertex="1">
          <mxGeometry x="364" y="270" width="100" height="30" as="geometry" />
        </mxCell>
        <mxCell id="ZPP5SdGMfIlQ1nmrVlfU-14" style="edgeStyle=orthogonalEdgeStyle;rounded=0;orthogonalLoop=1;jettySize=auto;html=1;exitX=0.5;exitY=1;exitDx=0;exitDy=0;exitPerimeter=0;entryX=0.5;entryY=0;entryDx=0;entryDy=0;entryPerimeter=0;" parent="WIyWlLk6GJQsqaUBKTNV-1" source="ZPP5SdGMfIlQ1nmrVlfU-3" target="ZPP5SdGMfIlQ1nmrVlfU-2" edge="1">
          <mxGeometry relative="1" as="geometry" />
        </mxCell>
        <mxCell id="ZPP5SdGMfIlQ1nmrVlfU-3" value="产品" style="strokeWidth=2;html=1;shape=mxgraph.flowchart.terminator;whiteSpace=wrap;" parent="WIyWlLk6GJQsqaUBKTNV-1" vertex="1">
          <mxGeometry x="364" y="200" width="100" height="30" as="geometry" />
        </mxCell>
        <mxCell id="ZPP5SdGMfIlQ1nmrVlfU-10" value="给设备添加物模型" style="rounded=1;whiteSpace=wrap;html=1;" parent="WIyWlLk6GJQsqaUBKTNV-1" vertex="1">
          <mxGeometry x="540" y="255" width="120" height="60" as="geometry" />
        </mxCell>
        <mxCell id="ZPP5SdGMfIlQ1nmrVlfU-11" value="" style="endArrow=classic;html=1;rounded=0;entryX=0;entryY=0.5;entryDx=0;entryDy=0;exitX=1;exitY=0.5;exitDx=0;exitDy=0;exitPerimeter=0;" parent="WIyWlLk6GJQsqaUBKTNV-1" source="ZPP5SdGMfIlQ1nmrVlfU-2" target="ZPP5SdGMfIlQ1nmrVlfU-10" edge="1">
          <mxGeometry width="50" height="50" relative="1" as="geometry">
            <mxPoint x="390" y="310" as="sourcePoint" />
            <mxPoint x="440" y="260" as="targetPoint" />
          </mxGeometry>
        </mxCell>
        <mxCell id="ZPP5SdGMfIlQ1nmrVlfU-22" style="edgeStyle=orthogonalEdgeStyle;rounded=0;orthogonalLoop=1;jettySize=auto;html=1;exitX=1;exitY=0.5;exitDx=0;exitDy=0;exitPerimeter=0;entryX=0;entryY=0.5;entryDx=0;entryDy=0;entryPerimeter=0;" parent="WIyWlLk6GJQsqaUBKTNV-1" source="ZPP5SdGMfIlQ1nmrVlfU-18" target="ZPP5SdGMfIlQ1nmrVlfU-2" edge="1">
          <mxGeometry relative="1" as="geometry" />
        </mxCell>
        <mxCell id="ZPP5SdGMfIlQ1nmrVlfU-23" value="关联设备" style="edgeLabel;html=1;align=center;verticalAlign=middle;resizable=0;points=[];" parent="ZPP5SdGMfIlQ1nmrVlfU-22" vertex="1" connectable="0">
          <mxGeometry x="-0.253" y="1" relative="1" as="geometry">
            <mxPoint as="offset" />
          </mxGeometry>
        </mxCell>
        <mxCell id="ZPP5SdGMfIlQ1nmrVlfU-26" style="edgeStyle=orthogonalEdgeStyle;rounded=0;orthogonalLoop=1;jettySize=auto;html=1;exitX=0.5;exitY=1;exitDx=0;exitDy=0;exitPerimeter=0;entryX=0.5;entryY=0;entryDx=0;entryDy=0;" parent="WIyWlLk6GJQsqaUBKTNV-1" source="ZPP5SdGMfIlQ1nmrVlfU-18" target="ZPP5SdGMfIlQ1nmrVlfU-25" edge="1">
          <mxGeometry relative="1" as="geometry" />
        </mxCell>
        <mxCell id="ZPP5SdGMfIlQ1nmrVlfU-18" value="创建事件" style="strokeWidth=2;html=1;shape=mxgraph.flowchart.terminator;whiteSpace=wrap;" parent="WIyWlLk6GJQsqaUBKTNV-1" vertex="1">
          <mxGeometry x="150" y="60" width="100" height="30" as="geometry" />
        </mxCell>
        <mxCell id="ZPP5SdGMfIlQ1nmrVlfU-29" style="edgeStyle=orthogonalEdgeStyle;rounded=0;orthogonalLoop=1;jettySize=auto;html=1;exitX=0.5;exitY=1;exitDx=0;exitDy=0;entryX=0.5;entryY=0;entryDx=0;entryDy=0;" parent="WIyWlLk6GJQsqaUBKTNV-1" source="ZPP5SdGMfIlQ1nmrVlfU-25" target="ZPP5SdGMfIlQ1nmrVlfU-27" edge="1">
          <mxGeometry relative="1" as="geometry" />
        </mxCell>
        <mxCell id="ZPP5SdGMfIlQ1nmrVlfU-25" value="推送数据触发告警" style="rounded=0;whiteSpace=wrap;html=1;" parent="WIyWlLk6GJQsqaUBKTNV-1" vertex="1">
          <mxGeometry x="140" y="150" width="120" height="50" as="geometry" />
        </mxCell>
        <mxCell id="ZPP5SdGMfIlQ1nmrVlfU-27" value="查看告警事件产生" style="rounded=0;whiteSpace=wrap;html=1;" parent="WIyWlLk6GJQsqaUBKTNV-1" vertex="1">
          <mxGeometry x="140" y="250" width="120" height="60" as="geometry" />
        </mxCell>
        <mxCell id="ZPP5SdGMfIlQ1nmrVlfU-30" value="&lt;b&gt;先检查告警事件的产生&lt;/b&gt;&lt;br&gt;告警产生后有三种类型的执行动作：&lt;br&gt;1、邮件钉钉通知；（执行后查看是否收到邮件，钉钉通知）&lt;br&gt;2、转发数据；（检查流转日志中是否包含对应内容）&lt;br&gt;3、下发指令到设备；（检查设备是否执行了相应的指令）" style="shape=document;whiteSpace=wrap;html=1;boundedLbl=1;" parent="WIyWlLk6GJQsqaUBKTNV-1" vertex="1">
          <mxGeometry x="540" y="360" width="351" height="160" as="geometry" />
        </mxCell>
        <mxCell id="ZPP5SdGMfIlQ1nmrVlfU-37" value="http客户端" style="rounded=1;whiteSpace=wrap;html=1;fillColor=#dae8fc;strokeColor=#6c8ebf;" parent="WIyWlLk6GJQsqaUBKTNV-1" vertex="1">
          <mxGeometry x="730" y="60" width="120" height="60" as="geometry" />
        </mxCell>
        <mxCell id="ZPP5SdGMfIlQ1nmrVlfU-38" value="http服务端" style="rounded=1;whiteSpace=wrap;html=1;" parent="WIyWlLk6GJQsqaUBKTNV-1" vertex="1">
          <mxGeometry x="870" y="60" width="120" height="60" as="geometry" />
        </mxCell>
        <mxCell id="ZPP5SdGMfIlQ1nmrVlfU-39" value="mqtt客户端" style="rounded=1;whiteSpace=wrap;html=1;" parent="WIyWlLk6GJQsqaUBKTNV-1" vertex="1">
          <mxGeometry x="730" y="130" width="120" height="60" as="geometry" />
        </mxCell>
        <mxCell id="ZPP5SdGMfIlQ1nmrVlfU-40" value="mqtt服务端" style="rounded=1;whiteSpace=wrap;html=1;" parent="WIyWlLk6GJQsqaUBKTNV-1" vertex="1">
          <mxGeometry x="870" y="130" width="120" height="60" as="geometry" />
        </mxCell>
        <mxCell id="ZPP5SdGMfIlQ1nmrVlfU-41" value="UDP" style="rounded=1;whiteSpace=wrap;html=1;" parent="WIyWlLk6GJQsqaUBKTNV-1" vertex="1">
          <mxGeometry x="730" y="200" width="120" height="60" as="geometry" />
        </mxCell>
        <mxCell id="ZPP5SdGMfIlQ1nmrVlfU-42" value="TCP" style="rounded=1;whiteSpace=wrap;html=1;" parent="WIyWlLk6GJQsqaUBKTNV-1" vertex="1">
          <mxGeometry x="870" y="200" width="120" height="60" as="geometry" />
        </mxCell>
        <mxCell id="MADa0v70lDUM2bMOdORu-37" value="" style="edgeStyle=orthogonalEdgeStyle;rounded=0;orthogonalLoop=1;jettySize=auto;html=1;" edge="1" parent="WIyWlLk6GJQsqaUBKTNV-1" source="MADa0v70lDUM2bMOdORu-0" target="MADa0v70lDUM2bMOdORu-35">
          <mxGeometry relative="1" as="geometry" />
        </mxCell>
        <mxCell id="MADa0v70lDUM2bMOdORu-38" value="" style="edgeStyle=orthogonalEdgeStyle;rounded=0;orthogonalLoop=1;jettySize=auto;html=1;" edge="1" parent="WIyWlLk6GJQsqaUBKTNV-1" source="MADa0v70lDUM2bMOdORu-0" target="MADa0v70lDUM2bMOdORu-6">
          <mxGeometry relative="1" as="geometry" />
        </mxCell>
        <mxCell id="MADa0v70lDUM2bMOdORu-0" value="网络组件" style="rounded=0;whiteSpace=wrap;html=1;" vertex="1" parent="WIyWlLk6GJQsqaUBKTNV-1">
          <mxGeometry x="1290" y="120" width="120" height="40" as="geometry" />
        </mxCell>
        <mxCell id="MADa0v70lDUM2bMOdORu-36" value="" style="edgeStyle=orthogonalEdgeStyle;rounded=0;orthogonalLoop=1;jettySize=auto;html=1;" edge="1" parent="WIyWlLk6GJQsqaUBKTNV-1" source="MADa0v70lDUM2bMOdORu-1" target="MADa0v70lDUM2bMOdORu-35">
          <mxGeometry relative="1" as="geometry" />
        </mxCell>
        <mxCell id="MADa0v70lDUM2bMOdORu-41" style="edgeStyle=orthogonalEdgeStyle;rounded=0;orthogonalLoop=1;jettySize=auto;html=1;entryX=0.5;entryY=0;entryDx=0;entryDy=0;entryPerimeter=0;" edge="1" parent="WIyWlLk6GJQsqaUBKTNV-1" source="MADa0v70lDUM2bMOdORu-1" target="MADa0v70lDUM2bMOdORu-6">
          <mxGeometry relative="1" as="geometry" />
        </mxCell>
        <mxCell id="MADa0v70lDUM2bMOdORu-1" value="网关服务" style="rounded=0;whiteSpace=wrap;html=1;" vertex="1" parent="WIyWlLk6GJQsqaUBKTNV-1">
          <mxGeometry x="1150" y="120" width="120" height="40" as="geometry" />
        </mxCell>
        <mxCell id="MADa0v70lDUM2bMOdORu-3" value="设备" style="rounded=0;whiteSpace=wrap;html=1;" vertex="1" parent="WIyWlLk6GJQsqaUBKTNV-1">
          <mxGeometry x="1420" y="430" width="120" height="60" as="geometry" />
        </mxCell>
        <mxCell id="MADa0v70lDUM2bMOdORu-9" value="" style="edgeStyle=orthogonalEdgeStyle;rounded=0;orthogonalLoop=1;jettySize=auto;html=1;" edge="1" parent="WIyWlLk6GJQsqaUBKTNV-1" source="MADa0v70lDUM2bMOdORu-6" target="MADa0v70lDUM2bMOdORu-7">
          <mxGeometry relative="1" as="geometry" />
        </mxCell>
        <mxCell id="MADa0v70lDUM2bMOdORu-13" value="原始数据" style="edgeLabel;html=1;align=center;verticalAlign=middle;resizable=0;points=[];" vertex="1" connectable="0" parent="MADa0v70lDUM2bMOdORu-9">
          <mxGeometry x="-0.22" y="3" relative="1" as="geometry">
            <mxPoint as="offset" />
          </mxGeometry>
        </mxCell>
        <mxCell id="MADa0v70lDUM2bMOdORu-6" value="kafka" style="shape=cylinder3;whiteSpace=wrap;html=1;boundedLbl=1;backgroundOutline=1;size=15;" vertex="1" parent="WIyWlLk6GJQsqaUBKTNV-1">
          <mxGeometry x="1251" y="200" width="60" height="80" as="geometry" />
        </mxCell>
        <mxCell id="MADa0v70lDUM2bMOdORu-11" value="" style="edgeStyle=orthogonalEdgeStyle;rounded=0;orthogonalLoop=1;jettySize=auto;html=1;" edge="1" parent="WIyWlLk6GJQsqaUBKTNV-1" source="MADa0v70lDUM2bMOdORu-7" target="MADa0v70lDUM2bMOdORu-10">
          <mxGeometry relative="1" as="geometry" />
        </mxCell>
        <mxCell id="MADa0v70lDUM2bMOdORu-14" value="标准数据" style="edgeLabel;html=1;align=center;verticalAlign=middle;resizable=0;points=[];" vertex="1" connectable="0" parent="MADa0v70lDUM2bMOdORu-11">
          <mxGeometry x="-0.02" y="-2" relative="1" as="geometry">
            <mxPoint as="offset" />
          </mxGeometry>
        </mxCell>
        <mxCell id="MADa0v70lDUM2bMOdORu-7" value="协议" style="shape=document;whiteSpace=wrap;html=1;boundedLbl=1;" vertex="1" parent="WIyWlLk6GJQsqaUBKTNV-1">
          <mxGeometry x="1221" y="320" width="120" height="60" as="geometry" />
        </mxCell>
        <mxCell id="MADa0v70lDUM2bMOdORu-12" value="" style="edgeStyle=orthogonalEdgeStyle;rounded=0;orthogonalLoop=1;jettySize=auto;html=1;" edge="1" parent="WIyWlLk6GJQsqaUBKTNV-1" source="MADa0v70lDUM2bMOdORu-10" target="MADa0v70lDUM2bMOdORu-3">
          <mxGeometry relative="1" as="geometry" />
        </mxCell>
        <mxCell id="MADa0v70lDUM2bMOdORu-10" value="kafka" style="shape=cylinder3;whiteSpace=wrap;html=1;boundedLbl=1;backgroundOutline=1;size=15;" vertex="1" parent="WIyWlLk6GJQsqaUBKTNV-1">
          <mxGeometry x="1251" y="420" width="60" height="80" as="geometry" />
        </mxCell>
        <mxCell id="MADa0v70lDUM2bMOdORu-42" value="" style="edgeStyle=orthogonalEdgeStyle;rounded=0;orthogonalLoop=1;jettySize=auto;html=1;" edge="1" parent="WIyWlLk6GJQsqaUBKTNV-1" source="MADa0v70lDUM2bMOdORu-15" target="MADa0v70lDUM2bMOdORu-3">
          <mxGeometry relative="1" as="geometry" />
        </mxCell>
        <mxCell id="MADa0v70lDUM2bMOdORu-43" value="根据设备数据" style="edgeLabel;html=1;align=center;verticalAlign=middle;resizable=0;points=[];" vertex="1" connectable="0" parent="MADa0v70lDUM2bMOdORu-42">
          <mxGeometry x="-0.1364" y="-1" relative="1" as="geometry">
            <mxPoint as="offset" />
          </mxGeometry>
        </mxCell>
        <mxCell id="MADa0v70lDUM2bMOdORu-45" value="" style="edgeStyle=orthogonalEdgeStyle;rounded=0;orthogonalLoop=1;jettySize=auto;html=1;" edge="1" parent="WIyWlLk6GJQsqaUBKTNV-1" source="MADa0v70lDUM2bMOdORu-15" target="MADa0v70lDUM2bMOdORu-44">
          <mxGeometry relative="1" as="geometry" />
        </mxCell>
        <mxCell id="MADa0v70lDUM2bMOdORu-15" value="事件" style="ellipse;whiteSpace=wrap;html=1;" vertex="1" parent="WIyWlLk6GJQsqaUBKTNV-1">
          <mxGeometry x="1420" y="285" width="120" height="80" as="geometry" />
        </mxCell>
        <mxCell id="MADa0v70lDUM2bMOdORu-59" value="" style="edgeStyle=orthogonalEdgeStyle;rounded=0;orthogonalLoop=1;jettySize=auto;html=1;" edge="1" parent="WIyWlLk6GJQsqaUBKTNV-1" source="MADa0v70lDUM2bMOdORu-27" target="MADa0v70lDUM2bMOdORu-55">
          <mxGeometry relative="1" as="geometry" />
        </mxCell>
        <mxCell id="MADa0v70lDUM2bMOdORu-27" value="数据流转" style="rounded=1;whiteSpace=wrap;html=1;" vertex="1" parent="WIyWlLk6GJQsqaUBKTNV-1">
          <mxGeometry x="1241" y="630" width="120" height="60" as="geometry" />
        </mxCell>
        <mxCell id="MADa0v70lDUM2bMOdORu-28" value="流转原始数据到三方平台，也可以通过脚本自定义数据" style="rounded=1;whiteSpace=wrap;html=1;" vertex="1" parent="WIyWlLk6GJQsqaUBKTNV-1">
          <mxGeometry x="1561" y="585" width="120" height="60" as="geometry" />
        </mxCell>
        <mxCell id="MADa0v70lDUM2bMOdORu-35" value="拉取数据" style="rounded=1;whiteSpace=wrap;html=1;" vertex="1" parent="WIyWlLk6GJQsqaUBKTNV-1">
          <mxGeometry x="1221" y="20" width="120" height="60" as="geometry" />
        </mxCell>
        <mxCell id="MADa0v70lDUM2bMOdORu-52" style="edgeStyle=orthogonalEdgeStyle;rounded=0;orthogonalLoop=1;jettySize=auto;html=1;entryX=0;entryY=0.5;entryDx=0;entryDy=0;" edge="1" parent="WIyWlLk6GJQsqaUBKTNV-1" source="MADa0v70lDUM2bMOdORu-44" target="MADa0v70lDUM2bMOdORu-49">
          <mxGeometry relative="1" as="geometry" />
        </mxCell>
        <mxCell id="MADa0v70lDUM2bMOdORu-53" value="" style="edgeStyle=orthogonalEdgeStyle;rounded=0;orthogonalLoop=1;jettySize=auto;html=1;" edge="1" parent="WIyWlLk6GJQsqaUBKTNV-1" source="MADa0v70lDUM2bMOdORu-44" target="MADa0v70lDUM2bMOdORu-50">
          <mxGeometry relative="1" as="geometry" />
        </mxCell>
        <mxCell id="MADa0v70lDUM2bMOdORu-54" style="edgeStyle=orthogonalEdgeStyle;rounded=0;orthogonalLoop=1;jettySize=auto;html=1;entryX=0;entryY=0.5;entryDx=0;entryDy=0;" edge="1" parent="WIyWlLk6GJQsqaUBKTNV-1" source="MADa0v70lDUM2bMOdORu-44" target="MADa0v70lDUM2bMOdORu-51">
          <mxGeometry relative="1" as="geometry" />
        </mxCell>
        <mxCell id="MADa0v70lDUM2bMOdORu-44" value="执行动作" style="rhombus;whiteSpace=wrap;html=1;" vertex="1" parent="WIyWlLk6GJQsqaUBKTNV-1">
          <mxGeometry x="1580" y="285" width="80" height="80" as="geometry" />
        </mxCell>
        <mxCell id="MADa0v70lDUM2bMOdORu-49" value="钉钉、邮件" style="rounded=0;whiteSpace=wrap;html=1;" vertex="1" parent="WIyWlLk6GJQsqaUBKTNV-1">
          <mxGeometry x="1710" y="170" width="120" height="60" as="geometry" />
        </mxCell>
        <mxCell id="MADa0v70lDUM2bMOdORu-50" value="事件流转（标准数据基础上加了事件相关数据）" style="rounded=0;whiteSpace=wrap;html=1;" vertex="1" parent="WIyWlLk6GJQsqaUBKTNV-1">
          <mxGeometry x="1710" y="295" width="120" height="60" as="geometry" />
        </mxCell>
        <mxCell id="MADa0v70lDUM2bMOdORu-51" value="设备指令" style="rounded=0;whiteSpace=wrap;html=1;" vertex="1" parent="WIyWlLk6GJQsqaUBKTNV-1">
          <mxGeometry x="1710" y="420" width="120" height="60" as="geometry" />
        </mxCell>
        <mxCell id="MADa0v70lDUM2bMOdORu-57" style="edgeStyle=orthogonalEdgeStyle;rounded=0;orthogonalLoop=1;jettySize=auto;html=1;entryX=0;entryY=0.5;entryDx=0;entryDy=0;" edge="1" parent="WIyWlLk6GJQsqaUBKTNV-1" source="MADa0v70lDUM2bMOdORu-55" target="MADa0v70lDUM2bMOdORu-28">
          <mxGeometry relative="1" as="geometry" />
        </mxCell>
        <mxCell id="MADa0v70lDUM2bMOdORu-60" value="是" style="edgeLabel;html=1;align=center;verticalAlign=middle;resizable=0;points=[];" vertex="1" connectable="0" parent="MADa0v70lDUM2bMOdORu-57">
          <mxGeometry x="0.0146" relative="1" as="geometry">
            <mxPoint as="offset" />
          </mxGeometry>
        </mxCell>
        <mxCell id="MADa0v70lDUM2bMOdORu-58" style="edgeStyle=orthogonalEdgeStyle;rounded=0;orthogonalLoop=1;jettySize=auto;html=1;entryX=0;entryY=0.5;entryDx=0;entryDy=0;" edge="1" parent="WIyWlLk6GJQsqaUBKTNV-1" source="MADa0v70lDUM2bMOdORu-55" target="MADa0v70lDUM2bMOdORu-56">
          <mxGeometry relative="1" as="geometry" />
        </mxCell>
        <mxCell id="MADa0v70lDUM2bMOdORu-61" value="否" style="edgeLabel;html=1;align=center;verticalAlign=middle;resizable=0;points=[];" vertex="1" connectable="0" parent="MADa0v70lDUM2bMOdORu-58">
          <mxGeometry x="0.1289" y="-2" relative="1" as="geometry">
            <mxPoint as="offset" />
          </mxGeometry>
        </mxCell>
        <mxCell id="MADa0v70lDUM2bMOdORu-55" value="组件" style="rhombus;whiteSpace=wrap;html=1;" vertex="1" parent="WIyWlLk6GJQsqaUBKTNV-1">
          <mxGeometry x="1421" y="620" width="80" height="80" as="geometry" />
        </mxCell>
        <mxCell id="MADa0v70lDUM2bMOdORu-56" value="流转标准数据到三方平台，也可以通过脚本自定义数据" style="rounded=1;whiteSpace=wrap;html=1;" vertex="1" parent="WIyWlLk6GJQsqaUBKTNV-1">
          <mxGeometry x="1561" y="690" width="120" height="60" as="geometry" />
        </mxCell>
      </root>
    </mxGraphModel>
  </diagram>
</mxfile>
